{"accessors":[{"bufferView":2,"componentType":5126,"count":1617,"max":[1.857686996459961,0.7862134575843811,0.7929807305335999],"min":[-0.6933101415634155,-1.324440360069275,-0.792980968952179],"type":"VEC3"},{"bufferView":2,"byteOffset":19404,"componentType":5126,"count":1617,"max":[0.9960405230522156,0.9896060824394226,0.9960405230522156],"min":[-0.9960405230522156,-0.99076247215271,-0.9960405230522156],"type":"VEC3"},{"bufferView":1,"componentType":5126,"count":1617,"max":[1,1.0000001192092896],"min":[0,0],"type":"VEC2"},{"bufferView":0,"componentType":5125,"count":5964,"max":[1616],"min":[0],"type":"SCALAR"},{"bufferView":2,"byteOffset":38808,"componentType":5126,"count":236,"max":[-0.4033123254776001,0.22705388069152832,0.5859927535057068],"min":[-0.7289764881134033,-0.2484765350818634,-0.5859927535057068],"type":"VEC3"},{"bufferView":2,"byteOffset":41640,"componentType":5126,"count":236,"max":[0.9999468326568604,1,0.997327446937561],"min":[-0.9999468326568604,-1,-0.997327446937561],"type":"VEC3"},{"bufferView":1,"byteOffset":12936,"componentType":5126,"count":236,"max":[1,1],"min":[0,0.24999994039535522],"type":"VEC2"},{"bufferView":0,"byteOffset":23856,"componentType":5125,"count":1056,"max":[235],"min":[0],"type":"SCALAR"},{"bufferView":2,"byteOffset":44472,"componentType":5126,"count":117,"max":[-0.5265440344810486,0.18318459391593933,0.574317991733551],"min":[-0.7289764881134033,-0.20460721850395203,-0.5626432299613953],"type":"VEC3"},{"bufferView":2,"byteOffset":45876,"componentType":5126,"count":117,"max":[-0.35420525074005127,0.6234159469604492,0.9351677894592285],"min":[-0.9999468326568604,-0.6234159469604492,-0.8727775812149048],"type":"VEC3"},{"bufferView":1,"byteOffset":14824,"componentType":5126,"count":117,"max":[1,0.3125],"min":[0,0],"type":"VEC2"},{"bufferView":0,"byteOffset":28080,"componentType":5125,"count":384,"max":[116],"min":[0],"type":"SCALAR"},{"bufferView":2,"byteOffset":47280,"componentType":5126,"count":1052,"max":[0.23060327768325806,0.6184067726135254,0.8968189358711243],"min":[-0.753009557723999,-0.7034326195716858,-0.8968189358711243],"type":"VEC3"},{"bufferView":2,"byteOffset":59904,"componentType":5126,"count":1052,"max":[0.9995671510696411,0.9914054870605469,0.9983281493186951],"min":[-0.9995671510696411,-0.9914054870605469,-0.9983281493186951],"type":"VEC3"},{"bufferView":1,"byteOffset":15760,"componentType":5126,"count":1052,"max":[1,1],"min":[0,0],"type":"VEC2"},{"bufferView":0,"byteOffset":29616,"componentType":5125,"count":4212,"max":[1051],"min":[0],"type":"SCALAR"},{"bufferView":2,"byteOffset":72528,"componentType":5126,"count":142,"max":[-0.5870909690856934,-0.4965989887714386,0.06715842336416245],"min":[-0.6268823742866516,-0.709907591342926,-0.06715846806764603],"type":"VEC3"},{"bufferView":2,"byteOffset":74232,"componentType":5126,"count":142,"max":[0.9902651309967041,0.6971511244773865,0.9830124378204346],"min":[-0.9902651309967041,-0.9830124378204346,-0.9830124378204346],"type":"VEC3"},{"bufferView":1,"byteOffset":24176,"componentType":5126,"count":142,"max":[0.875,1],"min":[0.17530067265033722,0.00013605733693111688],"type":"VEC2"},{"bufferView":0,"byteOffset":46464,"componentType":5125,"count":468,"max":[141],"min":[0],"type":"SCALAR"},{"bufferView":2,"byteOffset":75936,"componentType":5126,"count":256,"max":[1.7768017053604126,0.0625225305557251,0.06989771872758865],"min":[1.6998800039291382,-0.07049383223056793,-0.06989786028862],"type":"VEC3"},{"bufferView":2,"byteOffset":79008,"componentType":5126,"count":256,"max":[0.9871746301651001,0.9706926345825195,0.9659280180931091],"min":[-0.41515862941741943,-0.8721597194671631,-0.9659280180931091],"type":"VEC3"},{"bufferView":1,"byteOffset":25312,"componentType":5126,"count":256,"max":[0.875,1],"min":[0.125,0.25],"type":"VEC2"},{"bufferView":0,"byteOffset":48336,"componentType":5125,"count":852,"max":[255],"min":[0],"type":"SCALAR"},{"bufferView":2,"byteOffset":82080,"componentType":5126,"count":2547,"max":[1.8898097276687622,0.8179799914360046,0.9287587404251099],"min":[-0.8211933374404907,-1.3565726280212402,-0.9287587404251099],"type":"VEC3"},{"bufferView":2,"byteOffset":112644,"componentType":5126,"count":2547,"max":[0.9999991655349731,1,0.9982367157936096],"min":[-0.9961246252059937,-1,-0.9987558722496033],"type":"VEC3"},{"bufferView":1,"byteOffset":27360,"componentType":5126,"count":2547,"max":[1,1.0000001192092896],"min":[0,0],"type":"VEC2"},{"bufferView":0,"byteOffset":51744,"componentType":5125,"count":9675,"max":[2546],"min":[0],"type":"SCALAR"},{"bufferView":2,"byteOffset":143208,"componentType":5126,"count":137,"max":[0.08726577460765839,0.11165711283683777,0.09454271197319031],"min":[-0.009128585457801819,-0.0366562157869339,-0.09454271197319031],"type":"VEC3"},{"bufferView":2,"byteOffset":144852,"componentType":5126,"count":137,"max":[0.035280004143714905,0.9993325471878052,0.9763717651367188],"min":[-0.9982781410217285,-0.9658969044685364,-0.9763717651367188],"type":"VEC3"},{"bufferView":1,"byteOffset":47736,"componentType":5126,"count":137,"max":[0.875,0.9782024025917053],"min":[0.14679771661758423,0],"type":"VEC2"},{"bufferView":0,"byteOffset":90444,"componentType":5125,"count":399,"max":[136],"min":[0],"type":"SCALAR"},{"bufferView":2,"byteOffset":146496,"componentType":5126,"count":38,"max":[1.2508511543273926,0.1510598361492157,0.40040820837020874],"min":[-1.2508175373077393,0.026082731783390045,-0.4002520442008972],"type":"VEC3"},{"bufferView":2,"byteOffset":146952,"componentType":5126,"count":38,"max":[0.19666193425655365,0.9999648332595825,0],"min":[-0.19666193425655365,0.9804714322090149,0],"type":"VEC3"},{"bufferView":1,"byteOffset":48832,"componentType":5126,"count":38,"max":[0.8666170835494995,0.7647624015808105],"min":[0.6271929740905762,0.33332234621047974],"type":"VEC2"},{"bufferView":0,"byteOffset":92040,"componentType":5125,"count":108,"max":[37],"min":[0],"type":"SCALAR"},{"bufferView":2,"byteOffset":147408,"componentType":5126,"count":466,"max":[1.272072196006775,0.1510598361492157,0.4216597378253937],"min":[-1.2720385789871216,-0.06816550344228745,-0.42150357365608215],"type":"VEC3"},{"bufferView":2,"byteOffset":153000,"componentType":5126,"count":466,"max":[1,0.9694746136665344,1],"min":[-1,-0.9999639987945557,-1],"type":"VEC3"},{"bufferView":1,"byteOffset":49136,"componentType":5126,"count":466,"max":[0.875,1],"min":[0.125,0.05152684077620506],"type":"VEC2"},{"bufferView":0,"byteOffset":92472,"componentType":5125,"count":1248,"max":[465],"min":[0],"type":"SCALAR"},{"bufferView":2,"byteOffset":158592,"componentType":5126,"count":572,"max":[0.8156459927558899,-0.047149378806352615,0.3501688539981842],"min":[-0.8156461119651794,-0.20066878199577332,-0.3500122129917145],"type":"VEC3"},{"bufferView":2,"byteOffset":165456,"componentType":5126,"count":572,"max":[1,1,1],"min":[-1,-1,-1],"type":"VEC3"},{"bufferView":1,"byteOffset":52864,"componentType":5126,"count":572,"max":[1,1],"min":[0,0],"type":"VEC2"},{"bufferView":0,"byteOffset":97464,"componentType":5125,"count":1872,"max":[571],"min":[0],"type":"SCALAR"},{"bufferView":2,"byteOffset":172320,"componentType":5126,"count":1444,"max":[0.7524911761283875,-0.08264296501874924,0.3582487106323242],"min":[-0.752491295337677,-0.24535398185253143,-0.3582487106323242],"type":"VEC3"},{"bufferView":2,"byteOffset":189648,"componentType":5126,"count":1444,"max":[1,1,1],"min":[-1,-1,-1],"type":"VEC3"},{"bufferView":1,"byteOffset":57440,"componentType":5126,"count":1444,"max":[1,1],"min":[0,0.027345845475792885],"type":"VEC2"},{"bufferView":0,"byteOffset":104952,"componentType":5125,"count":4392,"max":[1443],"min":[0],"type":"SCALAR"},{"bufferView":2,"byteOffset":206976,"componentType":5126,"count":320,"max":[0.7135027050971985,-0.1216314509510994,0.3487487733364105],"min":[-0.713502824306488,-0.20636548101902008,-0.3487487733364105],"type":"VEC3"},{"bufferView":2,"byteOffset":210816,"componentType":5126,"count":320,"max":[1,1,1],"min":[-1,-1,-1],"type":"VEC3"},{"bufferView":1,"byteOffset":68992,"componentType":5126,"count":320,"max":[0.8749832510948181,0.37498342990875244],"min":[0.1250167191028595,0.12501661479473114],"type":"VEC2"},{"bufferView":0,"byteOffset":122520,"componentType":5125,"count":936,"max":[319],"min":[0],"type":"SCALAR"},{"bufferView":2,"byteOffset":214656,"componentType":5126,"count":128,"max":[0.7150987386703491,0.036094751209020615,0.08970022201538086],"min":[-0.7150987386703491,0.036094747483730316,-0.08954404294490814],"type":"VEC3"},{"bufferView":2,"byteOffset":216192,"componentType":5126,"count":128,"max":[1.2962398443505663e-7,1,1.2962394180249248e-7],"min":[-1.2962398443505663e-7,1,-1.2962394180249248e-7],"type":"VEC3"},{"bufferView":1,"byteOffset":71552,"componentType":5126,"count":128,"max":[0.8180002570152283,0.8180002570152283],"min":[0.18199974298477173,0.18199974298477173],"type":"VEC2"},{"bufferView":0,"byteOffset":126264,"componentType":5125,"count":192,"max":[127],"min":[0],"type":"SCALAR"},{"bufferView":2,"byteOffset":217728,"componentType":5126,"count":2456,"max":[1.2863681316375732,0.16541150212287903,0.43590521812438965],"min":[-1.28633451461792,-0.25959789752960205,-0.4357490539550781],"type":"VEC3"},{"bufferView":2,"byteOffset":247200,"componentType":5126,"count":2456,"max":[1,1,1],"min":[-1,-1,-1],"type":"VEC3"},{"bufferView":1,"byteOffset":72576,"componentType":5126,"count":2456,"max":[1,1],"min":[0,0],"type":"VEC2"},{"bufferView":0,"byteOffset":127032,"componentType":5125,"count":8556,"max":[2455],"min":[0],"type":"SCALAR"}],"asset":{"extras":{"author":"HeyNinety (https://sketchfab.com/HeyNinety)","license":"CC-BY-4.0 (http://creativecommons.org/licenses/by/4.0/)","source":"https://sketchfab.com/3d-models/dog-c1d790c39dcf4ba2a9a47b4c0dc8836b","title":"Dog"},"generator":"Sketchfab-7.44.0","version":"2.0"},"bufferViews":[{"buffer":0,"byteLength":161256,"byteOffset":0,"name":"floatBufferViews","target":34963},{"buffer":0,"byteLength":92224,"byteOffset":161256,"byteStride":8,"name":"floatBufferViews","target":34962},{"buffer":0,"byteLength":276672,"byteOffset":253480,"byteStride":12,"name":"floatBufferViews","target":34962}],"buffers":[{"byteLength":530152,"uri":"data:application/octet-stream;base64,"}],"materials":[{"doubleSided":true,"name":"material_0","pbrMetallicRoughness":{"baseColorFactor":[1,1,1,1],"metallicFactor":1,"roughnessFactor":0.2973794997}},{"doubleSided":true,"emissiveFactor":[0,0,0],"name":"fur_light","pbrMetallicRoughness":{"baseColorFactor":[0.571125,0.491021,0.386429,1],"metallicFactor":0,"roughnessFactor":1}},{"doubleSided":true,"emissiveFactor":[0,0,0],"name":"eye1","pbrMetallicRoughness":{"baseColorFactor":[0.571125,0.558341,0.571125,1],"metallicFactor":0,"roughnessFactor":0.5}},{"doubleSided":true,"emissiveFactor":[0,0,0],"name":"eye2","pbrMetallicRoughness":{"baseColorFactor":[0.0998987,0.0262412,0.0159963,1],"metallicFactor":0,"roughnessFactor":1}},{"doubleSided":true,"emissiveFactor":[0,0,0],"name":"fur_dark","pbrMetallicRoughness":{"baseColorFactor":[0.198069,0.0822827,0.0451862,1],"metallicFactor":0,"roughnessFactor":1}},{"doubleSided":true,"emissiveFactor":[0,0,0],"name":"tongue","pbrMetallicRoughness":{"baseColorFactor":[0.533276,0.111932,0.116971,1],"metallicFactor":0,"roughnessFactor":1}},{"doubleSided":false,"name":"outline","pbrMetallicRoughness":{"baseColorFactor":[0.0648033,0.0202886,0.012983,1],"metallicFactor":0,"roughnessFactor":1}},{"doubleSided":true,"emissiveFactor":[0,0,0],"name":"griptape","pbrMetallicRoughness":{"baseColorFactor":[0.00560469,0.00560469,0.00560469,1],"metallicFactor":0,"roughnessFactor":1}},{"doubleSided":true,"emissiveFactor":[0,0,0],"name":"wood","pbrMetallicRoughness":{"baseColorFactor":[0.615178,0.368275,0.116949,1],"metallicFactor":0,"roughnessFactor":1}},{"doubleSided":true,"emissiveFactor":[0,0,0],"name":"metal","pbrMetallicRoughness":{"baseColorFactor":[0.358841,0.358841,0.358841,1],"metallicFactor":1,"roughnessFactor":0.2533543425}},{"doubleSided":true,"emissiveFactor":[0,0,0],"name":"wheel","pbrMetallicRoughness":{"baseColorFactor":[0.615178,0.594287,0.446716,1],"metallicFactor":0,"roughnessFactor":1}},{"doubleSided":true,"emissiveFactor":[0,0,0],"name":"wheel.001","pbrMetallicRoughness":{"baseColorFactor":[0,0,0,1],"metallicFactor":0,"roughnessFactor":1}},{"doubleSided":false,"emissiveFactor":[0,0,0],"name":"outline.001","pbrMetallicRoughness":{"baseColorFactor":[0,0,0,1],"metallicFactor":0,"roughnessFactor":1}}],"meshes":[{"primitives":[{"attributes":{"NORMAL":1,"POSITION":0,"TEXCOORD_0":2},"indices":3,"material":1,"mode":4}]},{"primitives":[{"attributes":{"NORMAL":5,"POSITION":4,"TEXCOORD_0":6},"indices":7,"material":2,"mode":4}]},{"primitives":[{"attributes":{"NORMAL":9,"POSITION":8,"TEXCOORD_0":10},"indices":11,"material":3,"mode":4}]},{"primitives":[{"attributes":{"NORMAL":13,"POSITION":12,"TEXCOORD_0":14},"indices":15,"material":4,"mode":4}]},{"primitives":[{"attributes":{"NORMAL":17,"POSITION":16,"TEXCOORD_0":18},"indices":19,"material":5,"mode":4}]},{"primitives":[{"attributes":{"NORMAL":21,"POSITION":20,"TEXCOORD_0":22},"indices":23,"material":6,"mode":4}]},{"primitives":[{"attributes":{"NORMAL":25,"POSITION":24,"TEXCOORD_0":26},"indices":27,"material":6,"mode":4}]},{"primitives":[{"attributes":{"NORMAL":29,"POSITION":28,"TEXCOORD_0":30},"indices":31,"material":6,"mode":4}]},{"primitives":[{"attributes":{"NORMAL":33,"POSITION":32,"TEXCOORD_0":34},"indices":35,"material":7,"mode":4}]},{"primitives":[{"attributes":{"NORMAL":37,"POSITION":36,"TEXCOORD_0":38},"indices":39,"material":8,"mode":4}]},{"primitives":[{"attributes":{"NORMAL":41,"POSITION":40,"TEXCOORD_0":42},"indices":43,"material":9,"mode":4}]},{"primitives":[{"attributes":{"NORMAL":45,"POSITION":44,"TEXCOORD_0":46},"indices":47,"material":10,"mode":4}]},{"primitives":[{"attributes":{"NORMAL":49,"POSITION":48,"TEXCOORD_0":50},"indices":51,"material":11,"mode":4}]},{"primitives":[{"attributes":{"NORMAL":53,"POSITION":52,"TEXCOORD_0":54},"indices":55,"material":0,"mode":4}]},{"primitives":[{"attributes":{"NORMAL":57,"POSITION":56,"TEXCOORD_0":58},"indices":59,"material":12,"mode":4}]}],"nodes":[{"children":[1],"name":"RootNode (gltf orientation matrix)","rotation":[-0.7071067811865475,0,0,0.7071067811865476]},{"children":[2],"name":"RootNode (model correction matrix)"},{"children":[3],"name":"root"},{"children":[4,11,13,15,21,23],"matrix":[1,0,0,0,0,2.220446049250313e-16,1,0,0,-1,2.220446049250313e-16,0,0,0,0,1],"name":"GLTF_SceneRootNode"},{"children":[5,6,7,8,9,10],"matrix":[0.5257285237312317,0,0,0,0,0.5257285237312317,0,0,0,0,0.5257285237312317,0,-0.30033522844314575,0.09010055661201477,0,1],"name":"Cube_0"},{"mesh":0,"name":""},{"mesh":1,"name":""},{"mesh":2,"name":""},{"mesh":3,"name":""},{"mesh":4,"name":""},{"mesh":5,"name":""},{"children":[12],"matrix":[0.5257285237312317,0,0,0,0,0.5257285237312317,0,0,0,0,0.5257285237312317,0,-0.30033522844314575,0.09010055661201477,0,1],"name":"Cube.001_1"},{"mesh":6,"name":""},{"children":[14],"matrix":[1,0,0,0,0,1,0,0,0,0,1,0,-0.7092044353485107,-0.05745750665664673,0,1],"name":"Cube.002_2"},{"mesh":7,"name":""},{"children":[16,17,18,19,20],"matrix":[1,0,0,0,0,1,0,0,0,0,1,0,0.0958850234746933,-0.6493520140647888,-0.00007808782538631931,1],"name":"Cube.003_3"},{"mesh":8,"name":""},{"mesh":9,"name":""},{"mesh":10,"name":""},{"mesh":11,"name":""},{"mesh":12,"name":""},{"children":[22],"matrix":[1,0,0,0,0,1,0,0,0,0,1,0,0.09588503837585449,-0.6493520140647888,-0.00007808782538631931,1],"name":"Plane_5"},{"mesh":13,"name":""},{"children":[24],"matrix":[1,0,0,0,0,1,0,0,0,0,1,0,0.0958850234746933,-0.6493520140647888,-0.00007808782538631931,1],"name":"Cube.004_6"},{"mesh":14,"name":""}],"scene":0,"scenes":[{"name":"OSG_Scene","nodes":[0]}]}